<svg width="11" height="11" viewBox="0 0 11 11" fill="none" xmlns="http://www.w3.org/2000/svg">
<path d="M9.8125 4.5625H6.625C6.52145 4.5625 6.4375 4.47855 6.4375 4.375V1.1875C6.4375 0.669769 6.01773 0.25 5.5 0.25C4.98227 0.25 4.5625 0.669769 4.5625 1.1875V4.375C4.5625 4.47855 4.47855 4.5625 4.375 4.5625H1.1875C0.669769 4.5625 0.25 4.98227 0.25 5.5C0.25 6.01773 0.669769 6.4375 1.1875 6.4375H4.375C4.47855 6.4375 4.5625 6.52145 4.5625 6.625V9.8125C4.5625 10.3302 4.98227 10.75 5.5 10.75C6.01773 10.75 6.4375 10.3302 6.4375 9.8125V6.625C6.4375 6.52145 6.52145 6.4375 6.625 6.4375H9.8125C10.3302 6.4375 10.75 6.01773 10.75 5.5C10.75 4.98227 10.3302 4.5625 9.8125 4.5625Z" fill="white"/>
</svg>
